<svg width="124" height="43" viewBox="0 0 124 43" fill="none" xmlns="http://www.w3.org/2000/svg">
<path d="M100.651 1H91L100.651 21.2469L91 42H100.651L106.746 28.8395L113.857 42H123L111.825 21.2469L123 1H113.857L106.746 13.6543L100.651 1Z" fill="#D22F27" stroke="#D22F27"/>
<path d="M77 1L77 42L86 42L86 1L77 1Z" fill="#D22F27" stroke="#D22F27"/>
<path d="M52 0.999996L52 42L72 42L72 35.2532L59.5 35.2532L59.5 0.999997L52 0.999996Z" fill="#D22F27" stroke="#D22F27"/>
<path d="M26 41V1H47V7.58228H33.35V17.7089H43.85V24.2911H33.35V34.4177H47V41H26Z" fill="#D22F27" stroke="#D22F27"/>
<path d="M1 41V1H21V7.58228H8.5V17.7089H18V24.2911H8.5V41H1Z" fill="#D22F27" stroke="#D22F27"/>
</svg>
